<svg width="1292" height="250" viewBox="0 0 1292 250" fill="none" xmlns="http://www.w3.org/2000/svg">

<path d="M476.261 55.2122C466.529 46.4575 455.147 39.9909 442.117 35.8056C429.079 31.6242 416.043 29.1429 403.01 28.3642H398.633C391.046 28.3642 383.845 29.3855 377.038 31.4282C370.226 33.4709 364.243 36.3442 359.09 40.0375C353.934 43.7349 349.898 48.1629 346.979 53.3149C344.062 58.4722 342.602 64.1629 342.602 70.3869C342.602 75.8362 343.815 80.3589 346.25 83.9575C348.679 87.5589 352.671 90.7189 358.215 93.4415C363.759 96.1682 371.101 98.8909 380.247 101.612C389.391 104.34 400.677 107.646 414.101 111.535C428.883 115.62 441.387 119.807 451.601 124.084C461.814 128.366 470.031 133.035 476.261 138.092C482.485 143.154 487.009 148.794 489.83 155.018C492.649 161.247 494.062 168.543 494.062 176.904C494.062 183.716 492.502 190.818 489.393 198.208C483.747 210.858 474.458 220.196 461.522 226.223C448.582 232.252 432.969 235.27 414.683 235.27C396.782 235.27 380.49 232.835 365.802 227.975C351.111 223.114 336.957 214.455 323.342 202.002L328.594 196.458C340.655 207.939 353.109 215.718 365.949 219.804C378.789 223.888 391.529 226.223 404.178 226.808C405.537 227.003 406.85 227.1 408.118 227.1H412.349C419.158 227.1 425.965 226.515 432.778 225.348C439.585 224.18 445.91 222.188 451.746 219.366C457.583 216.547 462.639 212.755 466.922 207.986C471.198 203.219 474.021 197.332 475.385 190.328C476.553 184.104 475.677 178.656 472.758 173.987C469.841 169.318 465.362 165.186 459.334 161.584C453.301 157.987 445.91 154.726 437.155 151.807C428.399 148.89 418.77 146.167 408.263 143.636C399.313 141.498 389.733 139.018 379.518 136.195C369.305 133.378 359.915 129.532 351.357 124.667C342.793 119.807 335.841 113.578 330.491 105.99C325.138 98.4029 322.758 88.7722 323.342 77.0989C323.925 66.5935 326.742 57.7429 331.805 50.5429C336.861 43.3482 343.233 37.5562 350.919 33.1789C358.603 28.8016 367.066 25.6415 376.309 23.6949C385.547 21.7522 394.643 20.7762 403.594 20.7762C410.402 20.9722 417.261 21.6056 424.169 22.6736C431.071 23.7442 437.93 25.4455 444.742 27.7802C451.55 30.1149 458.167 33.1335 464.587 36.8269C471.007 40.5242 476.939 45.0989 482.389 50.5429L476.261 55.2122Z" fill="black" style="fill: var(--primary)" data-label="text"/>
<path d="M523.244 229.434V24.2776H552.134V162.312L630.345 83.8109H641.436L587.446 138.091L657.777 229.434H628.594L570.812 154.726L552.134 173.403V229.434H523.244Z" fill="black" data-label="text"/>
<path d="M700.092 83.5189H674.12V229.434H700.092V83.5189ZM699.216 28.0709C702.523 31.3816 704.177 35.4669 704.177 40.3283C704.177 44.9976 702.523 48.9869 699.216 52.2936C695.905 55.6043 691.921 57.2536 687.252 57.2536C682.385 57.2536 678.3 55.6043 674.993 52.2936C671.688 48.9869 670.033 44.9976 670.033 40.3283C670.033 35.4669 671.688 31.3816 674.993 28.0709C678.3 24.7656 682.385 23.1096 687.252 23.1096C691.921 23.1096 695.905 24.7656 699.216 28.0709Z" fill="black" data-label="text"/>
<path d="M735.107 229.434V82.0603H756.411L762.539 99.2776C765.458 96.1683 769.106 93.4403 773.482 91.1056C777.859 88.7709 782.428 86.7789 787.198 85.1243C791.964 83.4736 796.828 82.2563 801.791 81.4763C806.751 80.7016 811.37 80.3083 815.652 80.3083C823.24 80.3083 830.727 81.3803 838.123 83.5189C845.515 85.6616 852.08 89.2603 857.822 94.3163C863.558 99.3776 868.035 106.135 871.246 114.599C874.456 123.062 875.668 133.714 874.894 146.554V229.434H845.71V145.387C845.902 135.464 844.88 127.051 842.646 120.143C840.408 113.239 837.488 107.646 833.891 103.363C830.29 99.0856 826.254 95.9216 821.78 93.8789C817.302 91.8363 812.83 90.6229 808.356 90.2309C804.658 90.2309 800.668 90.6683 796.391 91.5443C792.11 92.4203 787.928 93.6376 783.843 95.1923C779.756 96.7509 775.912 98.6936 772.315 101.028C768.712 103.363 765.748 105.99 763.414 108.908V229.434H735.107Z" fill="black" data-label="text"/>
<path d="M996.292 220.387C1006.8 220.387 1015.5 218.007 1022.41 213.238C1029.31 208.471 1034.52 202.439 1038.02 195.143C1041.53 187.848 1043.28 180.019 1043.28 171.651C1043.28 163.288 1041.53 155.455 1038.02 148.159C1034.52 140.863 1029.31 134.835 1022.41 130.066C1015.5 125.302 1006.8 122.916 996.292 122.916H934.715V220.387H996.292ZM994.832 112.118C1003.98 112.118 1011.56 110.176 1017.6 106.282C1023.62 102.392 1028.15 97.5269 1031.17 91.6909C1034.18 85.8536 1035.64 79.4842 1035.54 72.5762C1035.44 65.6722 1033.94 59.2976 1031.02 53.4603C1028.1 47.6243 1023.58 42.7629 1017.45 38.8696C1011.32 34.9789 1003.78 33.0322 994.832 33.0322H934.715V112.118H994.832ZM905.824 23.9856H1012.93C1022.46 23.9856 1030.68 25.7363 1037.59 29.2389C1044.49 32.7403 1050.03 37.2189 1054.22 42.6629C1058.4 48.1123 1061.32 54.2909 1062.97 61.1936C1064.63 68.1029 1064.92 74.9603 1063.85 81.7683C1062.78 88.5803 1060.39 95.0003 1056.7 101.028C1053 107.062 1047.95 111.927 1041.53 115.62C1050.67 118.931 1058.06 124.038 1063.71 130.942C1069.35 137.85 1073.28 145.487 1075.52 153.85C1077.76 162.216 1078.3 170.876 1077.13 179.822C1075.96 188.774 1073.04 196.944 1068.37 204.336C1063.71 211.732 1057.33 217.76 1049.26 222.43C1041.18 227.099 1031.41 229.434 1019.93 229.434H905.824V23.9856Z" fill="black" data-label="text"/>
<path d="M1196.78 220.387C1207.28 220.387 1215.99 218.007 1222.9 213.238C1229.8 208.471 1235.01 202.439 1238.51 195.143C1242.01 187.848 1243.76 180.019 1243.76 171.651C1243.76 163.288 1242.01 155.455 1238.51 148.159C1235.01 140.863 1229.8 134.835 1222.9 130.066C1215.99 125.302 1207.28 122.916 1196.78 122.916H1135.2V220.387H1196.78ZM1195.32 112.118C1204.46 112.118 1212.05 110.176 1218.08 106.282C1224.11 102.392 1228.63 97.5269 1231.65 91.6909C1234.66 85.8536 1236.12 79.4842 1236.03 72.5762C1235.93 65.6722 1234.42 59.2976 1231.51 53.4603C1228.59 47.6243 1224.06 42.7629 1217.93 38.8696C1211.81 34.9789 1204.26 33.0322 1195.32 33.0322H1135.2V112.118H1195.32ZM1106.31 23.9856H1213.41C1222.94 23.9856 1231.16 25.7363 1238.07 29.2389C1244.97 32.7403 1250.52 37.2189 1254.71 42.6629C1258.89 48.1123 1261.81 54.2909 1263.46 61.1936C1265.11 68.1029 1265.4 74.9603 1264.34 81.7683C1263.26 88.5803 1260.88 95.0003 1257.19 101.028C1253.49 107.062 1248.43 111.927 1242.01 115.62C1251.15 118.931 1258.54 124.038 1264.19 130.942C1269.83 137.85 1273.77 145.487 1276.01 153.85C1278.24 162.216 1278.78 170.876 1277.61 179.822C1276.45 188.774 1273.53 196.944 1268.86 204.336C1264.19 211.732 1257.81 217.76 1249.74 222.43C1241.67 227.099 1231.89 229.434 1220.42 229.434H1106.31V23.9856Z" fill="black" data-label="text"/>
<path d="M281.906 236.621V17.5731" stroke="black" stroke-width="4" stroke-miterlimit="10" stroke-linecap="round" stroke-linejoin="round"/>
<path d="M238.052 95.6318C247.108 147.102 216.98 201.54 167.505 219.541C122.649 237.121 67.285 222.38 37.8476 183.864C-1.17636 134.321 7.61697 54.4971 61.6836 20.2571C33.165 45.4065 18.393 89.3758 25.7396 126.66C31.6223 162.748 57.2516 194.434 90.7236 208.8C167.645 241.954 246.838 177.601 238.052 95.6318Z" fill="#EA8187" stroke="#EA8187" stroke-width="5.33333" stroke-miterlimit="10"/>
<path d="M132.139 59.4405C140.795 84.6658 150.046 126.729 172.727 142.605C187.826 153.045 212.497 156.665 224.497 140.215C234.449 126.087 233.111 92.2538 218.525 82.5098C207.761 75.4205 195.314 79.3312 185.398 86.7925C152.766 110.494 124.437 142.942 86.7073 159.994C57.654 173.742 25.0633 164.144 18.366 130.294C13.434 105.366 16.834 78.6378 27.65 55.6205C39.2794 30.8698 64.5793 6.40584 94.254 15.2125C114.042 21.0845 125.654 41.1138 132.139 59.4405ZM125.798 62.0272C118.747 44.1578 107.358 23.6872 86.098 21.6525C45.4834 17.7672 24.8967 77.4125 24.37 109.135C24.1473 122.597 25.8047 137.986 35.2207 148.626C46.7353 161.635 66.194 162.222 81.6593 156.962C102.395 149.91 120.495 135.682 136.681 121.31C141.351 117.163 145.907 112.89 150.393 108.546C170.025 91.9218 194.291 57.2285 223.39 74.9058C250.157 91.9565 243.389 150.394 211.122 156.075C181.627 161.122 157.151 137.585 144.026 113.757C137.99 103.399 130.686 73.1272 125.798 62.0272Z" fill="#EA8187"/>
<path d="M132.139 59.4405C140.795 84.6658 150.046 126.729 172.727 142.605C187.826 153.045 212.497 156.665 224.497 140.215C234.449 126.087 233.111 92.2538 218.525 82.5098C207.761 75.4205 195.314 79.3312 185.398 86.7925C152.766 110.494 124.437 142.942 86.7073 159.994C57.654 173.742 25.0633 164.144 18.366 130.294C13.434 105.366 16.834 78.6378 27.65 55.6205C39.2794 30.8698 64.5793 6.40584 94.254 15.2125C114.042 21.0845 125.654 41.1138 132.139 59.4405ZM125.798 62.0272C118.747 44.1578 107.358 23.6872 86.098 21.6525C45.4834 17.7672 24.8967 77.4125 24.37 109.135C24.1473 122.597 25.8047 137.986 35.2207 148.626C46.7353 161.635 66.194 162.222 81.6593 156.962C102.395 149.91 120.495 135.682 136.681 121.31C141.351 117.163 145.907 112.89 150.393 108.546C170.025 91.9218 194.291 57.2285 223.39 74.9058C250.157 91.9565 243.389 150.394 211.122 156.075C181.627 161.122 157.151 137.585 144.026 113.757C137.99 103.399 130.686 73.1272 125.798 62.0272Z" stroke="#EA8187" stroke-width="5.33333" stroke-miterlimit="10"/>
</svg>
