<svg width="727" height="725" viewBox="0 0 727 725" fill="none" xmlns="http://www.w3.org/2000/svg">
<path d="M278.048 253.484C272.996 250.568 270.129 246.699 269.448 241.88C268.911 237.143 270.434 231.672 274.017 225.465C276.517 221.135 279.617 216.766 283.316 212.359C287.16 208.035 291.323 203.991 295.805 200.228L295.354 204.009C289.674 202.847 283.078 200.771 275.567 197.781C268.055 194.791 260.835 191.297 253.907 187.297C247.268 183.463 242.985 179.547 241.06 175.549C239.362 171.49 239.68 167.439 242.013 163.398C245.596 157.191 250.99 150.683 258.194 143.872C265.397 137.061 273.376 130.409 282.129 123.916C291.026 117.506 299.537 111.931 307.661 107.192C320.429 99.7443 332.357 95.0841 343.446 93.2109C354.618 91.1934 365.04 92.9763 374.71 98.5596C384.092 103.976 389.398 110.119 390.629 116.988C392.004 123.94 390.149 131.818 385.066 140.623C380.149 149.139 373.647 158.568 365.559 168.909C357.555 179.107 348.704 189.104 339.006 198.901L337.567 194.894C340.004 195.339 342.461 196.084 344.937 197.129C347.496 198.029 349.714 199.021 351.591 200.104C363.426 206.937 366.594 215.117 361.094 224.644C358.261 229.551 354.218 232.22 348.965 232.652C343.856 233.167 338.343 231.716 332.425 228.299C329.827 226.799 327.385 225.196 325.098 223.491C323.038 221.725 321.309 220.053 319.911 218.475L322.268 218.393C320.973 221.302 319.262 224.933 317.134 229.285C315.089 233.493 312.983 237.474 310.817 241.227C306.4 248.876 301.293 253.722 295.495 255.764C289.926 257.744 284.11 256.984 278.048 253.484ZM290.359 169.66C294.978 172.326 299.633 173.763 304.325 173.97C309.1 174.033 313.756 172.968 318.293 170.776C323.058 168.524 327.548 165.246 331.764 160.945C336.207 156.582 340.262 151.225 343.929 144.874C346.929 139.678 348.199 135.311 347.74 131.774C347.508 128.176 345.948 125.544 343.061 123.877C339.164 121.627 334.62 120.832 329.428 121.491C324.32 122.005 319 123.553 313.469 126.133C308.165 128.652 303.148 132.01 298.416 136.206C293.767 140.258 290.026 144.737 287.192 149.645C284.359 154.552 283.328 158.672 284.099 162.004C284.953 165.191 287.04 167.743 290.359 169.66Z" fill="black"/>
<mask id="path-2-outside-1_102_2" maskUnits="userSpaceOnUse" x="335.038" y="124.729" width="232.698" height="244.045" fill="black">
<rect fill="white" x="335.038" y="124.729" width="232.698" height="244.045"/>
<path d="M406.313 320.322C394.189 313.322 385.319 304.351 379.703 293.411C374.171 282.327 372.035 270.027 373.294 256.513C374.636 242.854 379.558 228.664 388.058 213.941C396.974 198.497 407.333 186.388 419.135 177.613C431.081 168.922 443.548 163.995 456.536 162.833C469.524 161.672 482.296 164.716 494.853 171.966C507.266 179.132 516.3 188.486 521.954 200.025C527.692 211.421 529.92 224.062 528.638 237.948C527.501 251.918 522.724 266.192 514.308 280.77C505.224 296.503 494.721 308.529 482.797 316.848C471.017 325.251 458.573 329.805 445.463 330.512C432.354 331.218 419.304 327.822 406.313 320.322ZM424.628 295.1C433.577 300.266 443.055 300.35 453.062 295.35C463.153 290.207 472.989 279.335 482.573 262.736C491.573 247.148 495.569 234.059 494.562 223.47C493.555 212.881 488.577 205.004 479.628 199.837C470.823 194.754 461.512 194.381 451.694 198.72C442.02 203.143 432.683 213.148 423.683 228.736C414.1 245.335 409.603 259.29 410.194 270.6C411.012 281.85 415.823 290.016 424.628 295.1Z"/>
</mask>
<path d="M406.313 320.322C394.189 313.322 385.319 304.351 379.703 293.411C374.171 282.327 372.035 270.027 373.294 256.513C374.636 242.854 379.558 228.664 388.058 213.941C396.974 198.497 407.333 186.388 419.135 177.613C431.081 168.922 443.548 163.995 456.536 162.833C469.524 161.672 482.296 164.716 494.853 171.966C507.266 179.132 516.3 188.486 521.954 200.025C527.692 211.421 529.92 224.062 528.638 237.948C527.501 251.918 522.724 266.192 514.308 280.77C505.224 296.503 494.721 308.529 482.797 316.848C471.017 325.251 458.573 329.805 445.463 330.512C432.354 331.218 419.304 327.822 406.313 320.322ZM424.628 295.1C433.577 300.266 443.055 300.35 453.062 295.35C463.153 290.207 472.989 279.335 482.573 262.736C491.573 247.148 495.569 234.059 494.562 223.47C493.555 212.881 488.577 205.004 479.628 199.837C470.823 194.754 461.512 194.381 451.694 198.72C442.02 203.143 432.683 213.148 423.683 228.736C414.1 245.335 409.603 259.29 410.194 270.6C411.012 281.85 415.823 290.016 424.628 295.1Z" fill="#FF5678"/>
<path d="M379.703 293.411L372.545 296.984L372.566 297.024L372.586 297.065L379.703 293.411ZM373.294 256.513L365.332 255.731L365.33 255.751L365.328 255.771L373.294 256.513ZM419.135 177.613L414.429 171.144L414.395 171.169L414.362 171.193L419.135 177.613ZM456.536 162.833L455.823 154.865L455.823 154.865L456.536 162.833ZM521.954 200.025L514.77 203.545L514.789 203.584L514.809 203.623L521.954 200.025ZM528.638 237.948L520.672 237.213L520.668 237.256L520.665 237.299L528.638 237.948ZM482.797 316.848L478.219 310.287L478.185 310.311L478.151 310.335L482.797 316.848ZM445.463 330.512L445.894 338.5L445.463 330.512ZM453.062 295.35L456.637 302.507L456.666 302.492L456.695 302.478L453.062 295.35ZM494.562 223.47L502.526 222.713L502.526 222.713L494.562 223.47ZM451.694 198.72L448.46 191.403L448.414 191.423L448.368 191.444L451.694 198.72ZM410.194 270.6L402.205 271.018L402.209 271.099L402.215 271.181L410.194 270.6ZM406.313 320.322L410.313 313.393C399.332 307.053 391.64 299.147 386.821 289.758L379.703 293.411L372.586 297.065C378.998 309.556 389.046 319.59 402.313 327.25L406.313 320.322ZM379.703 293.411L386.861 289.839C382.058 280.215 380.125 269.431 381.259 257.255L373.294 256.513L365.328 255.771C363.944 270.624 366.284 284.438 372.545 296.984L379.703 293.411ZM373.294 256.513L381.255 257.296C382.463 245.008 386.923 231.906 394.986 217.941L388.058 213.941L381.129 209.941C372.192 225.421 366.809 240.701 365.332 255.731L373.294 256.513ZM388.058 213.941L394.986 217.941C403.47 203.246 413.148 192.034 423.909 184.033L419.135 177.613L414.362 171.193C401.519 180.742 390.478 193.749 381.129 209.941L388.058 213.941ZM419.135 177.613L423.842 184.082C434.776 176.127 445.888 171.818 457.249 170.802L456.536 162.833L455.823 154.865C441.209 156.173 427.387 161.717 414.429 171.144L419.135 177.613ZM456.536 162.833L457.249 170.802C468.414 169.803 479.556 172.371 490.853 178.894L494.853 171.966L498.853 165.037C485.036 157.06 470.633 153.54 455.823 154.865L456.536 162.833ZM494.853 171.966L490.853 178.894C502.055 185.361 509.895 193.595 514.77 203.545L521.954 200.025L529.138 196.505C522.705 183.377 512.478 172.904 498.853 165.037L494.853 171.966ZM521.954 200.025L514.809 203.623C519.81 213.556 521.829 224.675 520.672 237.213L528.638 237.948L536.605 238.683C538.011 223.448 535.574 209.286 529.1 196.428L521.954 200.025ZM528.638 237.948L520.665 237.299C519.641 249.875 515.321 263.014 507.379 276.77L514.308 280.77L521.236 284.77C530.127 269.369 535.361 253.961 536.612 238.597L528.638 237.948ZM514.308 280.77L507.379 276.77C498.74 291.734 488.972 302.785 478.219 310.287L482.797 316.848L487.375 323.409C500.469 314.273 511.708 301.272 521.236 284.77L514.308 280.77ZM482.797 316.848L478.151 310.335C467.477 317.949 456.473 321.907 445.033 322.523L445.463 330.512L445.894 338.5C460.673 337.704 474.558 332.552 487.443 323.361L482.797 316.848ZM445.463 330.512L445.033 322.523C433.684 323.135 422.158 320.232 410.313 313.393L406.313 320.322L402.313 327.25C416.45 335.412 431.024 339.302 445.894 338.5L445.463 330.512ZM424.628 295.1L420.628 302.028C432.123 308.664 444.463 308.59 456.637 302.507L453.062 295.35L449.487 288.194C441.647 292.11 435.031 291.868 428.628 288.172L424.628 295.1ZM453.062 295.35L456.695 302.478C468.819 296.297 479.621 283.849 489.501 266.736L482.573 262.736L475.645 258.736C466.358 274.822 457.486 284.116 449.429 288.223L453.062 295.35ZM482.573 262.736L489.501 266.736C498.815 250.604 503.766 235.752 502.526 222.713L494.562 223.47L486.598 224.228C487.372 232.366 484.331 243.692 475.645 258.736L482.573 262.736ZM494.562 223.47L502.526 222.713C501.282 209.637 494.896 199.414 483.628 192.909L479.628 199.837L475.628 206.765C482.258 210.593 485.827 216.126 486.598 224.228L494.562 223.47ZM479.628 199.837L483.628 192.909C472.471 186.468 460.461 186.1 448.46 191.403L451.694 198.72L454.927 206.038C462.563 202.663 469.175 203.04 475.628 206.765L479.628 199.837ZM451.694 198.72L448.368 191.444C436.455 196.89 426.069 208.604 416.755 224.736L423.683 228.736L430.611 232.736C439.297 217.692 447.585 209.395 455.02 205.996L451.694 198.72ZM423.683 228.736L416.755 224.736C406.875 241.849 401.495 257.428 402.205 271.018L410.194 270.6L418.183 270.183C417.711 261.152 421.324 248.822 430.611 232.736L423.683 228.736ZM410.194 270.6L402.215 271.181C403.201 284.735 409.247 295.457 420.628 302.028L424.628 295.1L428.628 288.172C422.4 284.576 418.823 278.965 418.173 270.02L410.194 270.6Z" fill="black" mask="url(#path-2-outside-1_102_2)"/>
<path d="M549.113 409.984C544.062 407.068 541.195 403.199 540.514 398.38C539.977 393.643 541.5 388.172 545.083 381.965C547.583 377.635 550.683 373.266 554.382 368.859C558.226 364.535 562.389 360.491 566.871 356.728L566.42 360.509C560.74 359.347 554.144 357.271 546.633 354.281C539.121 351.291 531.901 347.797 524.973 343.797C518.334 339.963 514.051 336.047 512.126 332.049C510.428 327.99 510.746 323.939 513.079 319.898C516.662 313.691 522.056 307.183 529.26 300.372C536.463 293.561 544.442 286.909 553.194 280.416C562.092 274.006 570.603 268.431 578.727 263.692C591.495 256.244 603.423 251.584 614.512 249.711C625.684 247.693 636.106 249.476 645.776 255.06C655.158 260.476 660.464 266.619 661.695 273.488C663.07 280.44 661.215 288.318 656.132 297.123C651.215 305.639 644.713 315.068 636.625 325.409C628.621 335.607 619.77 345.604 610.072 355.401L608.633 351.394C611.07 351.839 613.527 352.584 616.003 353.629C618.562 354.529 620.78 355.521 622.656 356.604C634.492 363.437 637.66 371.617 632.16 381.144C629.327 386.051 625.284 388.72 620.031 389.152C614.922 389.667 609.409 388.216 603.491 384.799C600.893 383.299 598.451 381.696 596.164 379.991C594.104 378.225 592.375 376.553 590.976 374.975L593.334 374.893C592.039 377.802 590.328 381.433 588.2 385.785C586.155 389.993 584.049 393.974 581.883 397.727C577.466 405.376 572.359 410.222 566.561 412.264C560.992 414.244 555.176 413.484 549.113 409.984ZM561.425 326.16C566.044 328.826 570.699 330.263 575.391 330.47C580.166 330.533 584.822 329.468 589.359 327.276C594.124 325.024 598.614 321.746 602.83 317.445C607.273 313.082 611.328 307.725 614.995 301.374C617.995 296.178 619.265 291.811 618.805 288.274C618.573 284.676 617.014 282.044 614.127 280.377C610.23 278.127 605.686 277.332 600.494 277.991C595.386 278.505 590.066 280.053 584.535 282.633C579.231 285.152 574.214 288.51 569.481 292.706C564.833 296.758 561.092 301.237 558.258 306.145C555.425 311.052 554.394 315.172 555.164 318.504C556.019 321.691 558.105 324.243 561.425 326.16Z" fill="black"/>
<path d="M281.835 428.128C306.48 404.482 353.161 411.892 373.42 418.553H375.502C380.914 424.797 391.904 437.286 392.57 437.286C393.236 437.286 384.799 440.894 380.498 442.698L358.434 437.286L321.799 442.698L261.436 462.68C257.967 461.015 257.19 451.773 281.835 428.128Z" fill="white"/>
<path fill-rule="evenodd" clip-rule="evenodd" d="M369.751 346.041C379.788 353.052 393.233 348.941 402.984 343.665C403.57 347.752 411.209 347.364 413.945 349.335C418.259 352.441 423.091 358.096 426.475 362.215C434.29 371.729 439.12 385.024 443.494 396.423C447.999 408.162 453.562 418.231 465.144 424.758C468.886 426.866 472.51 429.694 476.35 431.672C480.941 434.037 486.26 435.193 491.309 434.814C497.326 434.362 502.515 434.174 508.413 433.04C514.715 431.829 521.441 430.56 527.685 430.751C532.318 430.893 536.994 429.95 541.51 430.164C544.283 430.295 547.031 430.06 549.799 430.176C550.896 430.221 551.753 430.213 552.884 430.315C555.566 430.556 555.609 430.266 556.002 432.642C556.467 435.451 554.671 440.013 554.494 442.896C554.289 446.247 554.857 449.556 554.734 452.878C554.597 456.61 553.521 456.267 550.26 457.978C547.097 459.638 544.091 461.237 540.821 462.7C531.455 466.893 521.566 470.996 511.234 472.151C498.84 473.538 485.926 472.068 473.61 471.534C466.746 471.238 459.634 470.06 453.032 468.375C447.838 467.049 439.42 464.357 435.362 460.872C440.005 460.663 438.377 456.54 435.666 454.717C430.727 451.396 428.515 452.99 429.697 458.561C423.884 456.657 418.685 452.044 413.735 448.35C407.372 443.601 397.928 436.466 397.551 427.923C397.126 418.289 385.779 398.845 386.96 408.983C388.021 418.095 392.006 430.411 386.96 438.947C386.74 433.83 377.621 425.422 373.327 423.981C365.693 421.418 356.628 421.815 348.674 422.304C333.939 423.208 319.158 426.106 305.021 430.011C290.758 433.95 275.492 439.067 263.646 448.419C262.187 449.572 260.824 451.483 259.339 452.476C258.821 452.822 257.269 452.625 256.532 453.009C254.568 454.028 257.547 454.2 254.318 454.439C253.619 454.49 251.785 453.741 251.31 453.525C243.501 449.98 243.944 440.501 244.41 433.238C245.479 416.548 250.87 399.707 257.453 384.472C263.343 370.845 271.377 356.236 283.023 346.694C288.118 342.521 293.178 337.625 299.047 334.65C301.276 333.521 305.285 331.753 304.406 328.376C303.468 324.772 299.206 326.527 296.209 326.382C280.644 325.633 268.096 319.08 256.311 309.117C244.235 298.908 231.544 295.46 216.553 291.601C212.237 290.49 182.557 283.358 178.298 283.395C173.586 283.437 168.893 283.59 164.186 283.679C161.387 283.732 158.586 283.726 155.785 283.951C153.529 284.132 151.045 285.064 148.798 284.822C146.692 284.596 146.857 285.221 145.821 283.656C145.093 282.555 145.289 280.275 145.079 278.934C144.894 277.763 144.71 276.591 144.526 275.42C143.945 271.723 141.228 269.833 144.223 268.339C148.622 266.144 157.687 264.153 162.499 263.272C167.107 262.429 193.19 256.186 201.91 254.488C206.253 253.642 258.848 251.684 260.81 251.67C279.705 251.54 320.001 261.948 329.053 270.266C338.105 278.584 338.115 284.617 342.026 287.982C346.398 291.742 352.316 296.419 355.391 301.293C357.471 304.588 358.269 313.307 362.52 314.59C359.432 324.474 360.545 339.611 369.751 346.041Z" fill="#FF5678"/>
<path d="M557.009 456.436L559.09 424.797C562.976 425.352 570.83 426.462 571.163 426.462C571.496 426.462 612.654 411.753 633.191 404.398L634.857 413.141H637.354L648.594 417.304L643.183 426.462C644.154 426.879 645.847 428.461 644.848 431.458C643.849 434.455 638.881 439.09 636.522 441.033L593.643 447.277L557.009 456.436Z" fill="white" stroke="black"/>
<path d="M134.048 260.775L48.707 298.242V300.74H75.7665L59.5308 318.224L75.7665 331.546L104.491 312.396C112.54 305.735 131.967 291.665 145.288 288.667C158.61 285.67 150.839 277.705 145.288 274.097L134.048 260.775Z" fill="white"/>
<path d="M353.854 432.29L263.518 465.178C263.518 465.178 266.831 465.79 270.178 473.92C273.092 480.998 266.57 491.821 261.436 496.401C252.416 503.061 221.804 521.545 171.515 542.194C145.538 549.853 132.661 542.055 129.469 537.198L124.474 543.026L99.4956 537.198C94.2224 539.557 82.0942 548.771 75.7665 566.755C69.4387 584.739 72.0198 609.495 74.1013 619.625L86.5903 639.608C87.1453 635.167 88.5885 624.954 89.9207 619.625C91.2528 614.297 94.9163 620.18 96.5815 623.788L102.826 615.879H111.152L107.405 581.326C108.238 577.44 110.736 568.753 114.066 565.09C117.396 561.427 124.335 561.066 127.388 561.343L224.385 582.575L301.401 575.914L342.198 550.936L490.401 652.929L499.976 647.517L527.868 683.735L536.194 687.898L633.608 652.929C637.909 648.211 646.763 637.609 647.762 632.947C648.761 628.284 638.742 632.114 633.608 634.612C633.746 631.698 630.277 627.285 615.29 632.947C600.304 638.608 613.209 625.592 621.535 618.376L557.425 649.599H536.194L518.709 625.037L501.224 611.299L379.249 445.196L353.854 432.29Z" fill="white"/>
<path d="M368.841 338.543L367.592 316.063L388.407 311.483L396.733 304.406V284.424L395.484 271.935L415.467 258.197L433.784 254.45L452.517 269.854L467.504 281.926L461.676 297.329C463.619 299.272 468.087 304.073 470.418 307.737C473.332 312.316 470.835 313.565 467.504 319.809C464.174 326.054 463.341 324.389 459.178 326.054C455.848 327.386 452.517 322.446 451.269 319.809L449.187 323.14L418.381 332.715L407.973 323.14L400.064 341.041C394.791 342.428 381.164 343.872 368.841 338.543Z" fill="white"/>
<path fill-rule="evenodd" clip-rule="evenodd" d="M90.7386 315.52C91.9374 315.796 92.5177 315.32 92.7257 314.081C91.9405 314.65 91.3395 315.085 90.7386 315.52ZM106.434 608.96C105.37 609.019 106.423 611.713 106.558 611.702C106.516 610.788 106.475 609.874 106.434 608.96ZM396.317 275.76C397.703 275.993 405.503 278.126 402.877 273.775C401.466 271.437 398.62 275.762 396.317 275.76ZM370.543 328.359C366.574 330.555 378.817 338.308 380.569 338.794C382.28 339.268 395.182 340.979 395.337 338.137C390.834 337.141 386.311 337.743 381.898 336.412C376.5 334.783 374.415 332.102 370.543 328.359ZM563.505 448.083C563.742 444.547 563.885 441.114 564.604 437.633C564.753 436.911 565.969 433.58 565.699 433.146C565.275 432.467 562.04 431.9 561.372 431.672C560.858 438.597 560.275 445.5 559.313 452.383C561.572 451.603 560.983 448.495 563.505 448.083ZM141.465 285.893C141.465 282.103 140.455 276.465 139.7 272.787C139.082 269.781 136.881 266.856 135.622 263.832C135.23 265.914 133.855 269.093 134.294 271.216C134.869 273.983 136.18 273.529 136.18 276.935C136.18 279.006 135.837 281.364 136.215 283.401C136.955 287.413 138.143 286.772 141.465 285.893ZM433.087 256.655C428.544 254.138 420.778 258.925 416.705 261.126C411.87 263.74 407.006 270.767 405.044 275.87C406.966 275.657 408.59 275.621 409.987 274.586C410.706 274.054 411.462 272.55 412.141 271.84C413.892 270.008 416.098 268.303 418.02 266.636C422.599 262.665 427.552 259.15 433.087 256.655ZM459.942 320.097C463.715 319.433 468.065 317.719 469.145 313.469C470.188 309.362 467.178 307.373 463.498 306.863C455.056 305.689 449.347 317.938 459.942 320.097ZM430.485 307.421C434.647 310.327 439.196 309.96 443.317 306.713C446.618 304.114 449.839 299.669 446.099 296.491C440.09 291.386 431.478 301.832 430.485 307.421ZM610.004 628.975C607.399 629.134 603.198 631.857 600.913 633.199C598.047 634.881 595.03 636.655 592.257 638.207C586.503 641.428 580.038 645.043 573.658 647.459C567.403 649.827 561.094 652.805 554.706 655.606C551.974 656.804 548.149 658.204 545.05 657.878C542.215 657.581 539.237 654.665 536.696 653.388C532.751 651.405 530.186 648.83 527.034 645.657C525.661 644.275 522.165 638.466 520.311 638.249C518.727 638.063 514.397 641.528 513.16 642.271C511.248 643.422 508.364 645.308 506.547 646.754C504.749 648.185 504.65 647.133 504.524 649.013C504.439 650.29 507.369 652.798 508.272 653.827C511.308 657.287 514.477 660.673 517.344 664.282C519.806 667.382 522.098 670.71 524.213 674.058C526.264 677.305 530.065 681.063 530.892 684.861C535.664 680.189 540.351 682.467 546.349 681.06C548.946 680.45 551.253 679.01 553.686 678.157C555.714 677.446 557.892 677.213 559.979 676.752C569.237 674.708 578.219 670.708 586.878 667.131C588.9 666.295 590.578 664.698 592.532 663.732C594.627 662.697 596.913 662.352 599.024 661.4C604.455 658.951 609.962 656.376 615.332 653.755C621.093 650.943 627.164 648.511 632.817 645.543C636.232 643.75 642.857 640.536 644.435 636.74C640.662 637.416 637.495 639.565 634.001 640.652C627.839 642.569 628.14 636.769 628.14 632.348C626.078 632.348 621.938 635.306 619.964 636.223C617.415 637.409 614.072 640.542 611.242 640.752C604.238 641.273 607.622 632.061 610.004 628.975ZM362.609 314.514C358.696 313.333 357.914 305.856 356.257 302.763C353.814 298.202 349.132 294.508 345.396 290.944C341.959 287.666 338.281 284.892 334.426 282.139C330.477 279.319 327.745 275.609 324.114 272.499C308.948 259.512 290.428 255.115 270.856 254.436C251.194 253.755 231.35 255.926 211.594 257.189C209.077 257.349 206.827 257.42 204.315 257.845C203.712 257.663 203.109 257.48 202.506 257.298L201.109 258.304C200.14 258.447 198.763 258.595 197.871 258.768C193.267 259.66 188.666 260.848 184.065 261.889C174.31 264.094 164.879 266.121 155.048 268.181C152.703 268.672 147.002 268.988 145.163 270.475C143.737 271.629 144.27 272.083 144.603 274.203C144.909 276.153 145.215 278.102 145.523 280.052C146.118 283.837 145.86 285.143 149.952 284.751C153.47 284.414 156.899 283.79 160.457 283.629C165.572 283.396 170.771 283.099 175.887 283.2C180.955 283.301 186.793 282.46 191.755 283.759C190.225 280.553 189.324 270.842 193.383 277.562C195.292 280.721 194.819 284.593 198.921 285.721C202.266 286.64 205.904 287.177 209.352 288.049C222.941 291.49 237.106 293.861 248.699 302.818C260.062 311.596 270.403 321.702 284.947 324.906C288.436 325.675 292.677 326.123 296.35 326.3C298.489 326.403 302.742 325.108 304.195 327.04C307.725 331.729 294.651 337.246 292.031 339.582C286.705 344.331 280.684 348.043 276.071 353.586C271.251 359.379 267.108 365.691 263.558 372.298C255.57 387.16 249.93 402.92 246.651 419.462C245.098 427.293 243.344 436.263 244.739 444.276C245.303 447.509 247.114 450.728 249.902 452.571C250.808 453.17 251.945 453.585 252.992 453.9C253.982 454.225 254.997 454.417 256.038 454.476C256.154 453.891 256.376 453.351 256.703 452.858C257.44 452.475 258.991 452.672 259.509 452.326C260.993 451.333 262.354 449.423 263.813 448.271C266.345 446.271 269.08 444.371 271.865 442.756C278.891 438.684 286.54 436.29 294.058 433.728C309.534 428.456 325.745 424.134 342.178 422.524C350.85 421.675 360.597 421.153 369.191 422.762C374.733 423.8 385.979 428.669 386.268 435.397C391.294 426.893 388.108 417.946 387.029 408.856C385.823 398.697 383.754 389.101 387.165 379.075C389.485 372.254 393.476 363.256 400.26 359.772C402.69 358.525 407.875 359.278 406.076 363.399C406.029 363.505 402.646 365.431 402.165 365.992C400.519 367.909 399.272 370.414 398.046 372.614C388.295 390.112 396.971 409.216 397.611 427.785C397.908 436.358 407.435 443.462 413.783 448.202C418.716 451.885 423.935 456.508 429.733 458.408C428.552 452.839 430.761 451.246 435.697 454.566C438.406 456.388 440.033 460.508 435.393 460.716C439.051 463.86 446.523 466.296 451.173 467.506C456.62 468.924 462.195 470.187 467.87 470.99C479.2 472.593 490.737 472.084 502.13 472.201C513.86 472.321 523.647 469.189 534.424 465.12C539.37 463.252 544.019 461.092 548.725 458.639C550.32 457.806 553.94 456.84 554.818 455.018C555.948 452.671 554.258 446.584 554.359 443.9C554.466 441.043 556.586 435.106 555.938 432.503C555.319 430.011 556.889 431.761 554.357 430.515C553.673 430.178 552.138 430.004 551.3 429.909C546.614 429.381 541.073 429.815 536.52 430.402C531.302 431.074 526.468 430.168 521.396 430.767C514.355 431.599 507.13 432.847 500.328 434.863C489.595 438.045 479.662 437.818 470.071 431.732C466.014 429.157 461.235 426.514 457.758 422.991C453.084 418.255 449.658 411.511 447.019 405.464C441.213 392.161 436.983 378.194 429.034 365.92C425.628 360.66 420.89 356.38 416.514 351.901C414.445 349.783 413.255 348.562 410.42 347.651C408.133 346.916 403.488 346.691 403.041 343.573C393.297 348.848 379.865 352.95 369.833 345.947C360.637 339.528 359.526 324.382 362.609 314.514ZM362.103 441.641C349.405 443.043 337.109 444.094 324.62 446.985C312.021 449.901 298.878 454.347 286.919 458.737C282.227 460.459 276.282 461.674 272.035 464.341C268.883 466.319 269.277 466.245 271.539 469.889C273.054 472.331 274.327 475.063 275.948 477.406C282.535 486.932 291.557 495.081 299.128 503.724C307.492 513.272 317.293 522.726 326.878 531.093C336.098 539.14 345.187 547.761 354.99 554.992C375.422 570.063 396.115 584.926 417.35 598.844C429.143 606.574 440.654 614.493 452.48 622.278C458.628 626.325 464.366 630.795 470.898 634.176C477.638 637.665 485.873 642.551 491.421 647.703C495.295 640.854 503.485 636.42 509.614 631.989C510.838 631.105 512.154 629.91 513.326 628.918C515.557 627.031 515.67 627.345 514.478 625.185C513.166 622.811 509.59 620.898 507.718 618.933C506.005 617.135 504.874 615.314 503.319 613.391C498.146 606.995 491.482 601.684 485.691 595.865C480.116 590.264 474.934 584.576 469.485 578.611C466.786 575.657 463.72 573.531 461.132 570.542C457.538 566.39 453.994 562.138 450.446 557.945C444.079 550.419 438.729 542.432 432.534 534.868C421.261 521.105 412.709 505.546 402.842 490.782C396.786 481.723 389.298 473.265 383.793 463.845C380.761 458.657 377.84 453.487 375.667 447.818C374.429 444.589 374.728 444.337 371.707 443.392C368.792 442.48 365.112 441.848 362.103 441.641ZM204.345 573.82C210.774 573.2 217.387 575.334 223.625 575.597C229.69 575.854 235.895 576.514 241.971 576.114C248.64 575.677 255.348 575.69 261.99 575.896C269.191 576.12 276.051 574.954 282.992 573.936C290.009 572.907 297.651 569.716 304.51 567.675C308.567 566.467 312.47 564.901 316.547 563.762C320.67 562.611 323.956 559.875 327.713 557.775C330.276 556.342 335.712 554.607 334.574 551.66C333.562 549.041 326.821 545.11 324.617 543.208C318.096 537.582 311.486 531.999 305.446 525.824C292.636 512.727 280.427 499.663 269.604 484.882C267.033 492.156 264.195 499.537 258.511 505.075C253.682 509.78 248.116 513.813 242.957 518.097C232.938 526.417 220.885 532.344 208.918 537.136C202.997 539.508 197.271 541.029 191.305 543.126C188.48 544.12 185.472 543.926 182.824 544.549C178.811 545.494 174.619 547.446 170.554 548.593C164.824 550.211 159.031 551.345 153.04 550.83C145.244 550.159 138.763 546.337 131.662 543.572C132.032 546.334 129.91 556.125 131.482 558.192C132.354 559.337 137.932 559.808 139.66 560.194C146.712 561.768 154.217 562.72 161.262 563.632C168.733 564.6 175.78 568.298 183.069 570.018C189.948 571.642 197.547 573.155 204.345 573.82ZM78.8054 614.113C79.2543 619.354 79.9094 627.277 84.1525 631.047C85.7777 627.103 84.8763 621.772 85.5952 617.569C86.0235 615.066 86.6043 612.602 87.2089 610.136C87.5526 608.737 87.763 604.701 88.4941 603.889C93.7427 598.052 94.8059 615.424 95.4001 617.444C97.3423 612.759 96.7018 607.558 98.4268 602.982C100.49 597.507 103.716 601.913 105.475 605.35C105.995 597.791 103.025 590.172 103.13 582.469C103.243 574.254 104.639 568.789 110.932 563.258C113.94 560.613 121.975 557.377 123.423 554.051C123.669 553.487 123.606 549.317 123.446 548.736C122.771 546.292 123.022 546.794 120.055 546.082C117.456 545.458 115.036 544.618 112.405 544.228C105.24 543.166 99.7181 543.016 93.6448 547.478C87.3287 552.119 84.3264 560.376 82.6416 567.788C79.1996 582.927 77.6133 598.622 78.8054 614.113ZM574.894 446.916C585.627 445.547 596.253 441.156 606.838 440.426C613.203 439.988 620.299 438.53 626.535 437.194C630.635 436.315 639.202 435.592 641.491 431.625C638.727 432.476 635.079 434.415 632.189 434.49C630.065 434.546 629.325 434.947 628.904 432.031C628.703 430.635 629.157 428.961 630.004 427.864C631.463 425.975 634.587 425.051 636.708 423.849C639.567 422.23 642.227 420.497 644.919 418.612C644.098 416.575 632.622 420.661 630.825 421.307C628.597 422.108 626.338 422.885 624.2 423.906C622.796 424.577 620.363 426.741 618.778 426.683C614.772 426.538 615.132 421.703 617.074 418.924C619.824 414.989 625.307 412.06 629 409.001C625.052 409.169 621.464 411.477 617.836 412.857C613.827 414.384 609.763 416.117 605.84 417.82C596.212 422 585.956 424.865 576.165 428.898C579.109 433.918 575.763 436.389 570.956 434.543C570.231 438.778 569.948 443.091 569.948 447.376C571.597 447.222 573.246 447.069 574.894 446.916ZM128.711 276.049C128.764 275.121 129.467 270.597 128.634 269.814C128.343 269.541 123.66 270.2 123.199 270.268C120.154 270.715 117.638 271.855 114.786 273.07C107.806 276.043 100.748 278.725 93.7816 281.719C80.739 287.323 67.8199 292.528 55.6441 299.814C64.6923 299.049 73.9486 296.428 82.1866 292.608C85.6713 290.993 98.7504 280.132 99.1354 289.582C99.3057 293.764 95.7043 295.251 92.6637 297.266C88.9406 299.733 85.2917 302.179 81.8345 305.003C79.9957 306.505 65.3377 316.363 66.0469 317.94C69.7699 317.05 73.7728 314.239 77.0518 312.28C80.7013 310.098 84.5296 308.158 88.2977 306.175C90.3529 305.093 95.0425 301.335 97.3009 302.978C101.214 305.826 95.8509 311.117 94.0888 313.064C97.5138 312.708 102.103 307.721 104.768 305.643C108.137 303.014 111.681 300.666 115.101 298.079C118.676 295.375 122.419 292.839 126.048 290.201C129.438 287.737 128.889 287.751 128.557 283.691C128.348 281.142 128.564 278.594 128.711 276.049ZM276.952 449.89C281.362 449.438 285.314 446.725 289.549 445.875C293.72 445.038 297.659 442.715 301.761 441.397C307.157 439.664 312.62 438.382 318.194 437.404C322.873 436.583 327.388 434.804 332.071 434.26C341.733 433.137 350.96 431.839 360.688 433.223C365.505 433.907 369.723 434.918 374.029 437.22C378.822 439.782 379.295 439.655 384.441 437.39C382.832 433.059 376.728 430.183 372.632 429.302C366.461 427.973 359.991 428.572 353.706 428.781C342.853 429.143 331.584 431.501 321.185 434.424C301.25 440.028 282.09 446.553 263.767 455.889C265.316 458.019 266.951 455.43 268.747 454.335C271.371 452.735 274.275 451.444 276.952 449.89ZM446.55 288.249C443.072 287.562 439.595 287.285 436.123 286.459C431.735 285.414 429.813 287.003 425.729 289.045C427.364 289.79 429.446 291.079 431.185 291.529C434.247 292.321 433.222 291.68 436.132 290.515C438.714 289.481 443.575 289.065 446.231 289.604C453.346 291.048 452.204 299.448 451.524 305.046C455.029 303.343 455.474 300.135 456.72 296.872C458.069 293.34 459.521 290.133 460.56 286.46C456.12 287.622 451.161 288.298 446.55 288.249ZM502.4 421.332C515.023 416.619 529.2 417.823 542.184 416.724C547.181 416.301 554.088 417.058 559.007 418.66C561.364 419.427 564.016 419.989 566.251 421.027C567.451 421.586 568.421 422.925 569.655 423.339C572.071 424.149 571.946 423.674 574.536 422.255C576.806 421.01 579.095 419.823 581.428 418.703C595.543 411.931 609.788 405.927 624.314 400.28C628.086 398.813 631.837 397.825 635.712 396.546C638.159 395.739 642.438 394.092 645.071 394.929C654.25 397.849 640.896 408.815 637.886 411.639C641.632 411.464 648.51 409.716 650.677 413.882C651.576 415.61 651.26 418.136 650.455 419.864C649.865 421.13 648.58 421.86 647.931 423.055C646.709 425.308 647.18 424.498 647.366 426.754C647.881 433.018 646.655 435.792 641.435 439.81C636.501 443.609 630.121 445.228 624.237 446.89C613.948 449.798 603.152 450.622 592.73 453.132C587.83 454.312 582.714 455.076 577.799 455.967C572.341 456.956 565.92 456.19 561.3 459.22C552.066 465.276 543.599 472.835 533.35 477.215C524.304 481.081 515.872 482.973 506.153 484.642C497.004 486.213 487.528 485.098 478.693 485.323C468.361 485.587 458.778 484.881 448.929 481.903C438.914 478.875 429.252 475 420.731 469.208C415.916 465.936 411.123 462.782 406.593 459.097C401.069 454.602 397.307 449.278 393.175 443.503C390.802 446.063 388.904 447.485 385.799 449.123C395.283 459.543 403.292 471.631 412.294 482.481C416.045 487.003 419.157 491.879 422.714 496.497C426.235 501.068 428.576 506.723 432.441 510.976C436.049 514.945 438.493 519.546 441.553 523.95C445.304 529.351 450.35 534.077 454.344 539.334C458.466 544.76 462.684 550.112 467.16 555.201C471.309 559.916 475.724 564.562 479.605 569.461C487.5 579.429 496.854 588.437 505.831 597.439C507.672 599.284 509.694 601.072 511.327 603.106C512.532 604.606 513.705 605.599 515.155 607.161C516.371 608.469 517.856 610.755 518.85 612.337C520.603 615.131 521.654 616.357 523.959 618.772C525.479 620.365 528.51 623.535 527.86 626.007C527.461 627.524 525.624 627.576 525.109 628.843C524.821 629.549 525.415 630.449 525.393 631.158C525.284 634.637 526.971 635.601 529.745 638.149C532.54 640.719 536.151 642.773 539.443 644.69C541.927 646.137 544.502 648.101 547.252 646.782C549.163 645.864 551.149 644.116 553.158 643.079C558.247 640.453 563.743 638.096 568.931 635.98C580.528 631.25 592.152 626.101 603.284 620.041C609.562 616.623 616.412 613.238 623.326 611.59C626.439 610.847 629.725 608.979 632.017 611.752C634.293 614.502 632.825 618.253 631.549 621.033C634.769 620.569 639.037 619.661 641.121 622.852C641.91 624.06 641.398 627.25 642.261 627.953C642.641 628.263 645.716 627.587 646.323 627.747C654.173 629.813 651.436 641.446 647.488 645.827C638.468 655.836 625.012 660.771 613.271 666.537C610.199 668.045 607.088 669.336 603.922 670.576C599.868 672.166 596.159 674.174 592.043 675.657C585.186 678.129 578.559 681.72 571.877 684.449C565.053 687.236 557.456 688.627 550.287 690.694C544.207 692.446 531.302 696.448 531.17 686.623C525.43 691.093 518.091 676.502 515.169 673.056C512.534 669.949 509.912 666.791 507.412 663.574C505.13 660.637 502.886 653.494 499.896 651.58C498.069 650.41 496.047 652.751 493.236 653.309C488.357 654.278 485.939 652.905 481.823 650.638C474.283 646.485 467.33 641.378 459.6 637.561C451.946 633.781 445.416 628.3 438.238 623.707C431.36 619.305 423.919 615.637 417.461 610.748C404.798 601.159 390.072 594.536 378.19 583.887C372.065 578.397 364.879 573.825 358.342 568.735C355.363 566.415 352.214 564.442 349.12 562.296C347.379 561.087 345.705 559.292 343.799 558.373C341.906 557.461 342.868 557.103 341.098 557.792C340.09 558.184 338.933 560.014 338.103 560.751C325.828 571.656 311.966 576.813 296.474 581.679C292.967 582.78 289.703 583.977 286.143 584.909C282.747 585.798 280.262 587.329 276.566 587.863C269.748 588.849 263.034 588.902 256.167 588.943C249.406 588.983 242.451 589.086 235.885 589.671C229.129 590.273 222.102 589.115 215.47 588.567C212.114 588.289 208.645 587.793 205.282 587.281C202.003 586.783 199.234 587.416 196.007 587.063C186.936 586.073 178.862 584.017 170.219 581.059C162.333 578.36 154.279 577.873 146.299 575.619C142.057 574.421 137.252 573.435 133.343 571.43C131.122 570.29 127.854 566.194 126.854 569.098C125.669 567.57 124.913 565.756 125.042 563.791C122.007 564.535 120.472 568.456 118.246 570.509C115.778 572.785 113.348 574.279 111.665 577.36C107.901 584.257 110.347 593.679 111.83 600.912C113.385 608.499 114.791 617.083 113.892 624.827C113.565 627.649 112.817 631.777 109.344 631.962C105.809 632.151 103.739 626.601 102.488 624.169C99.7826 630.617 96.2328 632.888 91.0956 627.397C90.1188 631.055 92.7494 645.833 85.4116 644.122C79.9106 642.84 75.3232 630.804 73.687 626.28C68.3004 611.39 69.1477 594.295 71.0126 578.817C72.8215 563.804 74.4996 547.287 86.6676 536.525C91.9319 531.869 97.0686 531.105 103.743 531.276C110.45 531.449 119.869 534.448 124.338 539.569C125.446 537.674 123.224 535.62 124.117 533.659C125.309 531.039 127.801 532.136 130.216 532.729C135.673 534.069 140.744 536.567 146.363 537.512C149.24 537.996 152.202 537.849 155.081 538.141C157.614 538.398 158.288 537.746 160.487 537.358C162.22 537.052 164.851 537.488 166.488 536.92C167.171 536.682 168.313 535.449 169.166 535.031C170.556 534.351 172.636 534.041 174.162 533.823C183.344 532.516 192.121 528.966 201.011 525.943C211.814 522.27 222.305 518.73 231.885 512.202C240.654 506.227 250.097 500.334 257.34 492.519C260.589 489.015 262.469 484.991 264.228 480.631C265.774 476.8 263.777 476.308 261.903 472.751C260.256 469.626 259.966 466.678 257.128 464.79C252.981 462.032 248.077 461.501 244.003 458.266C238.995 454.288 239.167 447.952 238.064 441.894C235.809 429.506 237.622 414.553 240.696 402.474C244.073 389.207 249.012 376.373 255.664 364.419C261.936 353.149 270.416 344.695 279.53 335.842C277.238 334.25 273.283 334.012 270.553 332.79C266.567 331.006 263.307 328.358 259.833 325.898C253.347 321.306 247.47 316.284 240.507 312.414C234.04 308.819 227.219 305.776 220.324 303.456C216.826 302.278 212.679 302.576 209.016 301.599C206.158 300.836 202.911 300.371 200.142 299.352C198.714 298.827 197.462 297.673 195.99 297.346C179.988 293.79 162.275 294.498 145.659 294.407C142.111 294.388 136.445 293.348 133.15 294.892C129.712 296.505 125.858 300.478 122.779 302.759C115.531 308.127 107.874 312.787 100.835 318.397C92.5006 325.039 83.987 331.623 75.3475 337.881C72.3836 340.028 66.9744 345.23 64.5567 339.959C62.4832 335.437 66.6557 330.899 68.1745 327.045C63.9028 329.49 54.9793 336.273 52.7519 328.427C50.5981 320.841 57.4293 313.728 61.9066 308.579C56.8837 309.604 47.2028 312.443 42.6599 308.953C38.0025 305.375 41.9981 297.56 45.313 294.814C55.4148 286.448 68.8922 281.295 80.9848 276.575C93.2561 271.784 105.616 268.197 118.206 264.844C120.796 264.154 123.023 261.964 125.711 261.723C128.808 261.444 127.672 263.472 129.145 260.031C129.785 258.534 129.549 256.704 130.391 255.27C134.488 248.302 139.747 258.715 141.327 262.355C150.082 258.759 159.008 257.06 167.954 254.413C175.024 252.32 182.292 250.035 189.447 248.014C193.301 246.924 197.198 246.38 201.095 245.661C204.817 244.975 209.242 243.864 213.204 243.481C219.962 242.827 227.127 242.194 233.789 242.04C266.328 241.288 300.923 239.216 327.284 262.452C327.284 264.571 334.072 270.301 335.746 271.469C340.413 274.724 344.553 277.919 348.879 281.785C353.556 285.963 357.297 289.576 360.07 295.251C362.46 300.14 363.044 305.536 364.318 310.784C367.718 306.911 368.765 310.554 369.42 313.742C370.124 317.169 370.962 319.228 373.15 322.039C377.826 328.046 383.97 331.196 391.485 331.939C392.864 332.075 397.43 332.465 398.714 331.937C401.043 330.979 400.346 330.407 401.346 327.832C402.108 325.87 403.23 324.434 404.224 322.617C405.437 321.752 405.896 320.596 405.599 319.149C405.632 318.513 405.666 317.876 405.698 317.239C408.225 315.755 411.102 322.593 412.031 323.827C414.726 327.406 417.633 328.013 422.012 328.013C421.726 325.619 421.092 325.483 423.347 324.389C424.738 323.714 426.731 324.188 428.05 324.724C431.842 326.262 431.761 327.017 436.046 325.26C439.215 323.961 442.052 322.272 444.919 320.42C447.36 318.844 447.744 318.575 448.681 315.819C449.398 313.711 449.282 310.907 449.55 308.719C446.657 310.455 444.962 313.805 441.787 315.528C438.566 317.276 434.681 318.369 431.175 316.76C423.879 313.411 425.935 304.151 428.087 298.275C424.752 297.703 421.26 295.719 419.127 293.104C417.691 291.343 416.652 289.149 415.117 287.137C411.615 282.552 402.561 281.454 400.845 288.456C399.971 292.021 402.045 293.294 405.315 293.748C409.208 294.287 410.156 293.329 408.739 297.929C407.177 298.733 406.692 299.985 407.284 301.685C407.187 302.25 407.089 302.816 406.992 303.382C406.638 304.806 405.878 305.908 405.463 307.277C404.286 311.158 404.083 312.221 399.695 313.404C391.997 315.479 383.056 316.562 375.12 317.242C372.481 317.468 369.683 317.44 370.557 313.855C371.279 310.896 376.194 309.894 378.686 308.981C381.574 307.922 386.907 307.429 389.381 305.902C392.017 304.274 391.764 301.316 391.173 298.172C390.437 294.247 389.687 291.262 389.806 287.044C389.938 282.426 391.598 280.75 394.349 277.094C387.097 279.107 378.998 284.372 371.468 284.362C361.448 284.348 363.305 274.046 365.303 267.271C361.642 267.89 355.959 269.418 354.164 264.835C352.065 259.475 357.302 253.288 360.516 249.715C356.304 249.305 352.286 250.322 350.751 245.241C349.683 241.704 350.994 237.53 353.425 234.861C359.793 227.872 369.691 226.474 378.415 225.489C383.239 224.944 388.156 224.49 392.995 224.944C397.687 225.385 401.361 227.362 405.642 229.347C410.118 231.423 413.159 234.317 416.148 238.279C417.553 240.14 418.724 241.945 419.511 244.157C419.894 245.236 420.254 250.571 421.101 251.181C422.352 252.087 430.02 248.937 432.205 249.025C434.619 249.123 436.117 249.875 437.544 251.9C438.316 252.999 439.104 257.059 440.55 257.502C441.249 257.716 445.608 255.919 446.632 255.762C448.122 255.534 449.562 255.207 451.088 255.06C455.829 254.603 460.757 254.475 465.356 255.93C474.535 258.832 479.765 267.16 477.365 276.971C476.917 278.8 475.666 280.135 475.118 281.868C474.382 284.199 474.65 286.638 474.097 289.047C472.932 294.124 470.769 297.139 466.387 299.778C480.474 310.991 465.195 336.474 450.642 323.617C446.507 329.415 437.502 333.563 430.748 335.177C421.646 337.351 413.193 336.077 408.326 327.679C407.773 329.12 406.877 330.672 406.605 332.173C406.391 332.731 406.177 333.289 405.964 333.846C405.328 334.692 405.633 335.18 406.88 335.311C407.731 337.715 408.356 337.959 407.102 340.869C416.404 337.647 426.209 346.024 432.632 352.233C436.958 356.416 439.259 362.552 441.969 367.788C445.148 373.929 447.567 380.347 450.502 386.589C453.14 392.199 454.768 398.293 457.648 403.778C460.372 408.969 464.779 412.712 469.351 416.039C473.591 419.123 477.846 422.207 483.273 423.49C489.456 424.952 496.357 422.883 502.4 421.332Z" fill="black"/>
<path fill-rule="evenodd" clip-rule="evenodd" d="M87.8375 449.661C88.316 442.04 99.839 435.102 105.063 430.436C111.837 424.386 118.639 418.277 126.077 412.933C144.706 399.551 164.064 387.499 184.686 377.501C187.841 375.971 210.841 365.057 211.475 371.225C211.854 374.917 202.491 376.763 199.932 377.868C194.32 380.291 188.996 383.337 183.573 386.109C167.301 394.429 152.542 406.189 137.478 416.824C128.488 423.172 120.078 430.346 111.175 436.784C106.429 440.215 102.258 444.294 97.675 447.851C94.4062 450.389 89.4068 455.746 87.8375 449.661Z" fill="black"/>
<path fill-rule="evenodd" clip-rule="evenodd" d="M477.028 499.154C479.575 498.122 482.51 508.462 483.622 510.307C485.742 513.824 488.062 517.46 490.636 520.646C496.58 528.007 502.614 535.063 509.625 541.448C516.344 547.568 523.931 553.363 531.992 557.652C534.314 558.887 551.707 564.421 545.152 569.945C543.125 571.653 536.78 570.035 534.606 569.355C530.848 568.179 526.686 566.219 523.246 564.317C516.03 560.325 509.282 555.231 503.499 549.345C496.888 542.616 491.483 535.234 486.164 527.465C481.391 520.496 474.085 507.748 477.028 499.154Z" fill="black"/>
<path fill-rule="evenodd" clip-rule="evenodd" d="M186.486 412.707C185.48 414.905 183.745 414.308 181.868 415.007C178.951 416.094 176.18 418.084 173.48 419.635C168.29 422.617 163.152 425.718 158.073 428.885C148.639 434.768 139.524 441.136 131.103 448.406C125.797 443.071 152.366 424.275 155.854 422.03C161.069 418.674 166.483 415.212 172.078 412.514C176.467 410.397 186.291 404.643 186.486 412.707Z" fill="black"/>
<path fill-rule="evenodd" clip-rule="evenodd" d="M510.417 514.012C513.94 513.285 514.953 518.798 516.419 520.521C518.747 523.257 521.716 525.598 524.497 527.774C527.883 530.423 530.934 533.153 534.491 535.576C537.384 537.547 543.756 540.62 543.208 544.953C541.956 554.858 524.126 540.605 521.126 537.641C516.849 533.417 504.34 520.305 510.417 514.012Z" fill="black"/>
<path fill-rule="evenodd" clip-rule="evenodd" d="M550.674 535.758C548.249 544.213 531.934 529.117 533.173 523.039C534.299 517.524 540.194 523.231 542.677 525.325C546.101 528.213 550.512 531.068 550.674 535.758Z" fill="black"/>
<path fill-rule="evenodd" clip-rule="evenodd" d="M172.165 443.804C168.352 442.717 158.915 447.502 164.632 440.201C166.265 438.115 168.108 436.127 170.387 437.239C172.692 438.365 173.866 441.89 172.165 443.804Z" fill="black"/>
<path fill-rule="evenodd" clip-rule="evenodd" d="M410.134 339.848C409.233 340.224 408.332 340.599 407.431 340.974C407.753 340.073 408.077 339.172 408.401 338.271C408.74 339.178 409.317 339.703 410.134 339.848Z" fill="black"/>
<path fill-rule="evenodd" clip-rule="evenodd" d="M219.594 243.141C217.513 243.514 215.624 243.581 213.513 243.515C215.572 243.156 217.513 243.162 219.594 243.141Z" fill="black"/>
<path fill-rule="evenodd" clip-rule="evenodd" d="M69.8318 599.757C69.8994 601.56 69.9662 603.363 70.0325 605.162C69.9649 603.357 69.8987 601.557 69.8318 599.757Z" fill="black"/>
<path fill-rule="evenodd" clip-rule="evenodd" d="M477.934 274.758C477.895 273.181 477.857 271.603 477.819 270.028C478.455 271.597 478.32 273.175 477.934 274.758Z" fill="black"/>
<path fill-rule="evenodd" clip-rule="evenodd" d="M227.026 242.844C225.45 242.852 223.873 242.86 222.297 242.867C224.103 242.333 225.728 242.324 227.026 242.844Z" fill="black"/>
<path fill-rule="evenodd" clip-rule="evenodd" d="M237.586 420.704C237.527 422.056 237.469 423.407 237.413 424.758C237.471 423.406 237.528 422.055 237.586 420.704Z" fill="black"/>
<path fill-rule="evenodd" clip-rule="evenodd" d="M273.648 241.458L269.594 241.167C270.945 241.264 272.296 241.361 273.648 241.458Z" fill="black"/>
<path fill-rule="evenodd" clip-rule="evenodd" d="M100.675 531.267C99.315 531.296 97.9273 531.767 96.6213 530.927C97.9722 531.041 99.3244 531.154 100.675 531.267Z" fill="black"/>
<path fill-rule="evenodd" clip-rule="evenodd" d="M643.917 411.358C642.606 412.227 641.214 411.548 639.863 411.649C641.214 411.552 642.565 411.455 643.917 411.358Z" fill="black"/>
<path fill-rule="evenodd" clip-rule="evenodd" d="M374.999 226.192C373.702 227.077 372.307 226.552 370.945 226.509C372.296 226.403 373.648 226.298 374.999 226.192Z" fill="black"/>
<path fill-rule="evenodd" clip-rule="evenodd" d="M156.756 538.114C155.63 538.126 154.503 538.137 153.378 538.148C154.501 537.524 155.627 537.638 156.756 538.114Z" fill="black"/>
<path fill-rule="evenodd" clip-rule="evenodd" d="M356.756 249.461C357.433 249.434 358.111 249.407 358.783 249.38C358.103 249.407 357.429 249.434 356.756 249.461Z" fill="black"/>
<path fill-rule="evenodd" clip-rule="evenodd" d="M254.053 241.192C253.152 241.319 252.25 241.446 251.351 241.572C252.168 240.579 253.155 241.343 254.053 241.192Z" fill="black"/>
<path fill-rule="evenodd" clip-rule="evenodd" d="M95.9456 630.565C96.6232 630.522 97.3013 630.478 97.9726 630.436C97.2932 630.48 96.6194 630.522 95.9456 630.565Z" fill="black"/>
<path fill-rule="evenodd" clip-rule="evenodd" d="M516.89 418.296C515.989 418.325 515.088 418.353 514.188 418.381C515.089 418.353 515.989 418.325 516.89 418.296Z" fill="black"/>
<path fill-rule="evenodd" clip-rule="evenodd" d="M407.114 301.785C407.1 301.108 407.086 300.431 407.073 299.758C407.086 300.436 407.1 301.11 407.114 301.785Z" fill="black"/>
<path fill-rule="evenodd" clip-rule="evenodd" d="M391.632 302.461C391.578 303.362 391.525 304.264 391.474 305.163C391.528 304.261 391.58 303.361 391.632 302.461Z" fill="black"/>
<path fill-rule="evenodd" clip-rule="evenodd" d="M242.567 589.334C243.245 589.301 243.922 589.267 244.594 589.234C243.914 589.267 243.241 589.301 242.567 589.334Z" fill="black"/>
<path fill-rule="evenodd" clip-rule="evenodd" d="M52.0269 310.238C52.705 310.234 53.3826 310.228 54.0539 310.224C53.3738 310.228 52.7 310.234 52.0269 310.238Z" fill="black"/>
<path fill-rule="evenodd" clip-rule="evenodd" d="M551.35 417.254C550.448 417.254 549.547 417.252 548.647 417.251C549.549 416.802 550.45 416.324 551.35 417.254Z" fill="black"/>
<path fill-rule="evenodd" clip-rule="evenodd" d="M550.196 535.568C550.164 534.667 550.133 533.764 550.101 532.865C550.667 533.751 550.75 534.649 550.196 535.568Z" fill="black"/>
<path fill-rule="evenodd" clip-rule="evenodd" d="M186.858 412.596C186.835 411.694 186.813 410.792 186.79 409.893C186.814 410.794 186.836 411.695 186.858 412.596Z" fill="black"/>
<path fill-rule="evenodd" clip-rule="evenodd" d="M134.459 294.722C134.911 294.701 135.364 294.68 135.81 294.659C135.356 294.68 134.908 294.701 134.459 294.722Z" fill="black"/>
<path fill-rule="evenodd" clip-rule="evenodd" d="M545.268 416.741C544.371 417.393 543.469 417.396 542.566 416.757C543.467 416.752 544.368 416.747 545.268 416.741Z" fill="black"/>
<path fill-rule="evenodd" clip-rule="evenodd" d="M166.891 536.244C166.553 537.267 165.621 536.827 164.864 536.817C165.54 536.626 166.216 536.435 166.891 536.244Z" fill="black"/>
<path fill-rule="evenodd" clip-rule="evenodd" d="M359.458 268.382C359.91 268.353 360.362 268.324 360.81 268.296C360.356 268.326 359.907 268.354 359.458 268.382Z" fill="black"/>
<path fill-rule="evenodd" clip-rule="evenodd" d="M235.134 241.82C234.233 241.932 233.331 242.044 232.432 242.156C233.333 242.044 234.234 241.932 235.134 241.82Z" fill="black"/>
<path fill-rule="evenodd" clip-rule="evenodd" d="M567.566 456.826C568.018 456.843 568.47 456.86 568.917 456.878C568.463 456.862 568.014 456.844 567.566 456.826Z" fill="black"/>
<path fill-rule="evenodd" clip-rule="evenodd" d="M240.282 450.433C240.229 451.11 240.176 451.787 240.121 452.46C240.174 451.781 240.228 451.107 240.282 450.433Z" fill="black"/>
<path fill-rule="evenodd" clip-rule="evenodd" d="M372.296 316.973C372.748 316.983 373.201 316.993 373.647 317.002C373.193 316.991 372.744 316.983 372.296 316.973Z" fill="black"/>
<path fill-rule="evenodd" clip-rule="evenodd" d="M163.513 579.102C163.965 579.133 164.418 579.165 164.864 579.196C164.41 579.164 163.961 579.133 163.513 579.102Z" fill="black"/>
<path fill-rule="evenodd" clip-rule="evenodd" d="M524.998 417.89C524.097 417.888 523.196 417.885 522.296 417.882C523.199 417.181 524.099 417.404 524.998 417.89Z" fill="black"/>
<path fill-rule="evenodd" clip-rule="evenodd" d="M613.511 449.468C613.963 449.436 614.415 449.403 614.863 449.371C614.409 449.403 613.96 449.436 613.511 449.468Z" fill="black"/>
<path fill-rule="evenodd" clip-rule="evenodd" d="M627.025 610.723C626.124 610.845 625.223 610.967 624.322 611.089C625.224 610.966 626.125 610.845 627.025 610.723Z" fill="black"/>
<path fill-rule="evenodd" clip-rule="evenodd" d="M354.481 261.245C354.422 261.922 354.362 262.598 354.301 263.272C354.36 262.593 354.421 261.919 354.481 261.245Z" fill="black"/>
<path fill-rule="evenodd" clip-rule="evenodd" d="M277.026 449.78C274.282 451.308 271.319 452.589 268.617 454.15C266.709 455.252 265.155 457.842 263.513 455.677C267.132 453.909 272.997 449.401 277.026 449.78Z" fill="black"/>
<path fill-rule="evenodd" clip-rule="evenodd" d="M103.216 586.244C102.662 584.662 102.669 583.084 103.27 581.514C103.252 583.092 103.234 584.668 103.216 586.244Z" fill="black"/>
<path fill-rule="evenodd" clip-rule="evenodd" d="M106.611 608.541C106.657 609.442 106.703 610.343 106.749 611.243C106.598 611.254 105.43 608.598 106.611 608.541Z" fill="black"/>
<path fill-rule="evenodd" clip-rule="evenodd" d="M128.607 279.488C128.68 278.361 128.753 277.233 128.825 276.109C128.753 277.237 128.68 278.362 128.607 279.488Z" fill="black"/>
<path fill-rule="evenodd" clip-rule="evenodd" d="M449.323 287.951C448.419 287.939 447.516 287.927 446.62 287.917C447.525 287.929 448.424 287.94 449.323 287.951Z" fill="black"/>
<path fill-rule="evenodd" clip-rule="evenodd" d="M247.972 575.905C249.099 575.815 250.225 575.725 251.351 575.636C250.225 575.726 249.098 575.815 247.972 575.905Z" fill="black"/>
<path fill-rule="evenodd" clip-rule="evenodd" d="M79.2392 615.973C79.3405 616.875 79.4426 617.777 79.5439 618.676C79.4419 617.774 79.3399 616.874 79.2392 615.973Z" fill="black"/>
<path fill-rule="evenodd" clip-rule="evenodd" d="M204.729 573.902C205.63 573.796 206.531 573.691 207.432 573.585C206.531 573.691 205.63 573.797 204.729 573.902Z" fill="black"/>
<path fill-rule="evenodd" clip-rule="evenodd" d="M196.621 572.302C197.513 572.515 198.528 571.548 199.324 572.668C198.422 572.546 197.522 572.424 196.621 572.302Z" fill="black"/>
<path fill-rule="evenodd" clip-rule="evenodd" d="M78.7948 597.73C78.7421 598.407 78.6887 599.084 78.6367 599.757C78.6907 599.078 78.7427 598.404 78.7948 597.73Z" fill="black"/>
<path fill-rule="evenodd" clip-rule="evenodd" d="M98.2743 305.163C98.2979 305.84 98.3216 306.517 98.3466 307.19C98.3236 306.512 98.2986 305.838 98.2743 305.163Z" fill="black"/>
<path fill-rule="evenodd" clip-rule="evenodd" d="M88.0343 605.838C88.1282 605.162 88.2221 604.485 88.3161 603.811C88.2215 604.488 88.1282 605.163 88.0343 605.838Z" fill="black"/>
<path fill-rule="evenodd" clip-rule="evenodd" d="M78.6188 611.919C78.6836 612.596 78.7478 613.272 78.8127 613.946C78.7478 613.27 78.6836 612.595 78.6188 611.919Z" fill="black"/>
<path fill-rule="evenodd" clip-rule="evenodd" d="M570.395 443.677C570.97 444.351 570.939 445.028 570.409 445.704C570.405 445.025 570.4 444.351 570.395 443.677Z" fill="black"/>
<path fill-rule="evenodd" clip-rule="evenodd" d="M363.512 441.374C363.06 441.333 362.608 441.291 362.161 441.249C362.615 441.29 363.063 441.333 363.512 441.374Z" fill="black"/>
<path fill-rule="evenodd" clip-rule="evenodd" d="M521.192 454.434C516.189 455.161 520.801 448.24 522.157 447.279C523.734 446.163 525.403 445.719 526.931 444.379C527.888 443.54 528.971 441.517 530.439 441.656C533.677 441.961 532.217 446.603 531.251 448.593C529.36 452.49 525.404 454.5 521.192 454.434Z" fill="black"/>
<path fill-rule="evenodd" clip-rule="evenodd" d="M358.851 374.758C355.906 373.713 341.019 370.884 347.612 364.855C351.968 360.873 364.07 371.054 358.851 374.758Z" fill="black"/>
<path fill-rule="evenodd" clip-rule="evenodd" d="M290.55 421.966C290.09 416.699 304.378 410.866 302.538 417.786C302.111 419.394 298.061 423.364 296.956 424.415C293.998 427.23 290.552 426.617 290.55 421.966Z" fill="black"/>
<path fill-rule="evenodd" clip-rule="evenodd" d="M156.756 276.4C157.724 272.987 158.791 271.383 162.174 270.064C164.336 269.22 167.919 268.453 168.232 271.975C168.464 274.573 164.797 277.101 163.023 278.207C159.851 280.186 158.103 280.081 156.756 276.4Z" fill="black"/>
<path fill-rule="evenodd" clip-rule="evenodd" d="M349.988 402.028C350.023 405.61 348.77 409.822 345.615 411.973C343.146 413.657 337.53 414.449 339.661 409.57C340.311 408.084 342.143 407.349 343.263 406.247C345.107 404.434 345.259 402.47 346.29 400.773C346.643 400.192 346.085 398.819 347.193 398.48C349.044 397.915 350.117 400.729 349.988 402.028Z" fill="black"/>
<path fill-rule="evenodd" clip-rule="evenodd" d="M417.018 372.731C419.565 372.726 421.972 373.642 420.491 376.548C419.367 378.752 414.49 380.442 412.284 380.751C409.451 381.147 406.287 380.272 407.841 376.682C409.137 373.693 414.213 373.424 417.018 372.731Z" fill="black"/>
<path fill-rule="evenodd" clip-rule="evenodd" d="M437.836 420.03C437.731 426.598 425.895 419.734 427.114 414.807C428.649 408.599 436.888 417.131 437.836 420.03Z" fill="black"/>
<path fill-rule="evenodd" clip-rule="evenodd" d="M302.021 304.48C302.021 310.059 290.263 302.915 291.277 298.035C292.63 291.53 302.267 300.267 302.021 304.48Z" fill="black"/>
<path fill-rule="evenodd" clip-rule="evenodd" d="M290.425 280.839C285.457 276.868 296.847 266.652 300.117 271.15C303.078 275.225 293.422 280.596 290.425 280.839Z" fill="black"/>
<path fill-rule="evenodd" clip-rule="evenodd" d="M293.859 364.623C291.137 364.378 287.999 364.405 285.603 362.845C283.854 361.706 280.818 357.308 283.482 355.409C285.122 354.24 289.262 357.569 290.942 358.443C293.807 359.935 295.713 360.863 293.859 364.623Z" fill="black"/>
<path fill-rule="evenodd" clip-rule="evenodd" d="M409.086 401.784C402.673 401.868 400.645 394.117 408.372 395.117C410.426 395.382 415.49 395.877 415.539 398.582C415.595 401.702 411.511 401.384 409.086 401.784Z" fill="black"/>
<path fill-rule="evenodd" clip-rule="evenodd" d="M343.918 330.378C343.456 333.322 342.661 335.486 340.077 337.206C337.857 338.685 333.496 340.652 333.798 336.236C333.977 333.608 342.732 323.774 343.918 330.378Z" fill="black"/>
<path fill-rule="evenodd" clip-rule="evenodd" d="M219.05 268.001C221.602 269.224 224.934 282.244 221.512 283.388C216.072 285.209 217.306 270.306 219.05 268.001Z" fill="black"/>
<path fill-rule="evenodd" clip-rule="evenodd" d="M329.945 390.298C325.98 385.799 336.369 376.855 338.87 381.431C340.936 385.211 332.354 388.7 329.945 390.298Z" fill="black"/>
<path fill-rule="evenodd" clip-rule="evenodd" d="M258.796 271.022C259.495 264.128 267.422 274.308 266.863 277.622C265.882 283.428 258.43 274.109 258.796 271.022Z" fill="black"/>
<path fill-rule="evenodd" clip-rule="evenodd" d="M264.864 442.487C264.822 447.088 255.788 442.317 256.841 437.459C258.031 431.971 264.797 439.921 264.864 442.487Z" fill="black"/>
<path fill-rule="evenodd" clip-rule="evenodd" d="M447.296 445.712C449.974 437.707 451.54 443.153 452.292 448.205C452.533 449.819 453.62 454.284 450.821 453.771C448.219 453.294 447.507 447.406 447.296 445.712Z" fill="black"/>
<path fill-rule="evenodd" clip-rule="evenodd" d="M480.05 450.433C482.149 451.871 486.345 462.623 481.63 461.096C478.034 459.932 477.289 452.554 480.05 450.433Z" fill="black"/>
<path fill-rule="evenodd" clip-rule="evenodd" d="M374.142 406.514C374.38 409.402 374.771 410.39 376.309 412.768C377.629 414.809 378.49 415.762 376.63 418.001C374.424 416.318 371.758 415.009 371.1 412.203C370.59 410.035 371.272 406.604 374.142 406.514Z" fill="black"/>
<path fill-rule="evenodd" clip-rule="evenodd" d="M311.336 376.785C309.782 375.551 304.364 368.965 305.581 366.576C307.082 363.625 314.634 372.25 311.336 376.785Z" fill="black"/>
<path fill-rule="evenodd" clip-rule="evenodd" d="M413.369 424.758C415.048 426.246 414.274 429.39 414.561 431.314C414.852 433.264 416.476 435.867 414.772 437.595C410.581 435.199 410.724 428.178 413.369 424.758Z" fill="black"/>
<path fill-rule="evenodd" clip-rule="evenodd" d="M269.594 399.74C269.566 397.418 275.095 393.194 276.244 395.907C277.23 398.235 271.085 405.209 269.594 399.74Z" fill="black"/>
<g filter="url(#filter0_f_102_2)">
<ellipse cx="88.5" cy="658.5" rx="36.5" ry="8.5" fill="#D9D9D9"/>
</g>
<g filter="url(#filter1_f_102_2)">
<ellipse cx="565.5" cy="713.5" rx="65.5" ry="7.5" fill="#D9D9D9"/>
</g>
<g filter="url(#filter2_f_102_2)">
<ellipse cx="308" cy="672.5" rx="104" ry="10.5" transform="rotate(1.22223 308 672.5)" fill="black" fill-opacity="0.05"/>
</g>
<defs>
<filter id="filter0_f_102_2" x="48" y="646" width="81" height="25" filterUnits="userSpaceOnUse" color-interpolation-filters="sRGB">
<feFlood flood-opacity="0" result="BackgroundImageFix"/>
<feBlend mode="normal" in="SourceGraphic" in2="BackgroundImageFix" result="shape"/>
<feGaussianBlur stdDeviation="2" result="effect1_foregroundBlur_102_2"/>
</filter>
<filter id="filter1_f_102_2" x="496" y="702" width="139" height="23" filterUnits="userSpaceOnUse" color-interpolation-filters="sRGB">
<feFlood flood-opacity="0" result="BackgroundImageFix"/>
<feBlend mode="normal" in="SourceGraphic" in2="BackgroundImageFix" result="shape"/>
<feGaussianBlur stdDeviation="2" result="effect1_foregroundBlur_102_2"/>
</filter>
<filter id="filter2_f_102_2" x="183.024" y="640.768" width="249.953" height="63.4633" filterUnits="userSpaceOnUse" color-interpolation-filters="sRGB">
<feFlood flood-opacity="0" result="BackgroundImageFix"/>
<feBlend mode="normal" in="SourceGraphic" in2="BackgroundImageFix" result="shape"/>
<feGaussianBlur stdDeviation="10.5" result="effect1_foregroundBlur_102_2"/>
</filter>
</defs>
</svg>
