<svg width="71" height="70" viewBox="0 0 71 70" fill="none" xmlns="http://www.w3.org/2000/svg">
<g filter="url(#filter0_d_3367_4209)">
<path d="M44.2923 32.7802C43.324 31.825 42.7917 30.5417 42.7917 29.165V19.4583H44.9792C45.3817 19.4583 45.7083 19.1317 45.7083 18.7292C45.7083 18.3267 45.3817 18 44.9792 18H26.0208C25.6183 18 25.2917 18.3267 25.2917 18.7292C25.2917 19.1317 25.6183 19.4583 26.0208 19.4583H28.2083V29.1665C28.2083 30.5417 27.676 31.8265 26.7077 32.7817C23.4542 35.9856 18 42.1573 18 47.4788C18 48.6338 18.3077 49.6838 18.9129 50.5996C19.9046 52.1017 21.6546 53 23.5956 53H47.4044C49.3454 53 51.0954 52.1031 52.0871 50.601C52.6923 49.6852 53 48.6338 53 47.4788C53 42.1573 47.5458 35.9856 44.2923 32.7802ZM50.8708 49.796C50.1504 50.8883 48.854 51.5402 47.4044 51.5402H23.5956C22.146 51.5402 20.8496 50.8883 20.1292 49.7946C19.6829 49.1223 19.4583 48.3421 19.4583 47.4773C19.4583 45.5217 20.3552 43.3692 21.5933 41.329C21.6108 41.329 21.6283 41.3319 21.6458 41.3319H44.9792C45.3817 41.3319 45.7083 41.0052 45.7083 40.6027C45.7083 40.2002 45.3817 39.8735 44.9792 39.8735H22.5427C24.3248 37.3156 26.4583 35.0713 27.73 33.8171C28.9783 32.5863 29.6667 30.934 29.6667 29.165V19.4583H41.3333V29.1665C41.3333 30.9354 42.0217 32.5892 43.27 33.8185C45.7565 36.2715 51.5417 42.5102 51.5417 47.4788C51.5417 48.3435 51.3171 49.1223 50.8708 49.796Z" fill="#615E83"/>
</g>
<defs>
<filter id="filter0_d_3367_4209" x="-3.25" y="0" width="78" height="78" filterUnits="userSpaceOnUse" color-interpolation-filters="sRGB">
<feFlood flood-opacity="0" result="BackgroundImageFix"/>
<feColorMatrix in="SourceAlpha" type="matrix" values="0 0 0 0 0 0 0 0 0 0 0 0 0 0 0 0 0 0 127 0" result="hardAlpha"/>
<feOffset dy="4"/>
<feGaussianBlur stdDeviation="2"/>
<feComposite in2="hardAlpha" operator="out"/>
<feColorMatrix type="matrix" values="0 0 0 0 0 0 0 0 0 0 0 0 0 0 0 0 0 0 0.25 0"/>
<feBlend mode="normal" in2="BackgroundImageFix" result="effect1_dropShadow_3367_4209"/>
<feBlend mode="normal" in="SourceGraphic" in2="effect1_dropShadow_3367_4209" result="shape"/>
</filter>
</defs>
</svg>
