<svg width="71" height="70" viewBox="0 0 71 70" fill="none" xmlns="http://www.w3.org/2000/svg">
<path d="M52.4705 32.9858L50.725 29.7264C50.0848 28.5297 48.6834 27.9641 47.3841 28.3854L35.5038 32.2584L23.6221 28.3854C22.3199 27.9626 20.9214 28.5297 20.2812 29.7264L18.5518 32.9552C17.951 33.9538 17.8372 35.1534 18.2412 36.2467C18.6436 37.34 19.5113 38.1782 20.6166 38.5469L20.9229 38.649L20.9141 43.9273C20.9141 46.7567 22.7151 49.2596 25.4011 50.1546L32.4911 52.5175C33.4579 52.8397 34.4729 53 35.4893 53C36.5057 53 37.5206 52.8397 38.4874 52.5175L45.5832 50.1531C48.2708 49.2581 50.0775 46.7581 50.079 43.9331V38.649L50.3881 38.5455C51.4935 38.1767 52.3611 37.3385 52.7636 36.2452C53.1675 35.152 53.0538 33.9523 52.4705 32.9858ZM19.609 35.7423C19.3596 35.066 19.4296 34.324 19.8204 33.6753L21.566 30.4159C21.8051 29.9684 22.2659 29.706 22.7515 29.706C22.89 29.706 23.03 29.7279 23.1686 29.7731L34.4247 33.4421L31.5491 38.7408C30.9848 39.681 29.8634 40.0979 28.8266 39.7466L21.0789 37.1651C20.395 36.9377 19.8598 36.4187 19.609 35.7438V35.7423ZM34.7514 51.5088C34.1404 51.4534 33.5367 51.328 32.9534 51.1327L25.8634 48.7698C23.7737 48.073 22.3709 46.1284 22.3724 43.9273L22.3797 39.1344L28.3643 41.1285C28.7638 41.2612 29.1707 41.3253 29.5703 41.3253C30.8681 41.3253 32.1003 40.6504 32.8148 39.4609L34.7601 35.8794L34.7514 51.5088ZM48.6207 43.9331C48.6207 46.1299 47.2135 48.073 45.1224 48.7683L38.0266 51.1327C37.4375 51.3295 36.8265 51.4548 36.2096 51.5102L36.2184 35.8283L38.2045 39.4872C38.9045 40.6562 40.1338 41.3253 41.4301 41.3253C41.8312 41.3253 42.2395 41.2612 42.639 41.1285L48.6207 39.1359V43.9331ZM51.3958 35.7423C51.145 36.4173 50.6098 36.9347 49.9259 37.1636L42.1782 39.7452C41.1356 40.0936 40.0186 39.6767 39.4717 38.7656L36.5815 33.4406L47.8377 29.7716C48.4618 29.5661 49.134 29.8416 49.4417 30.4145L51.2047 33.7059C51.5781 34.324 51.648 35.066 51.3987 35.7409L51.3958 35.7423ZM24.9433 26.5282C24.6618 26.2425 24.6647 25.779 24.952 25.4977L31.9253 18.6363C32.7711 17.7879 34.1593 17.7864 35.0139 18.6407L37.7627 21.3884C38.5909 20.6479 39.9719 20.6698 40.771 21.4686L44.787 25.4816C45.0714 25.7659 45.0714 26.228 44.787 26.5122C44.5027 26.7965 44.0404 26.7965 43.756 26.5122L39.74 22.4992C39.4557 22.2149 38.9934 22.2149 38.7091 22.4992L32.3672 28.7235C32.2243 28.8635 32.0391 28.9334 31.8553 28.9334C31.6658 28.9334 31.4776 28.8606 31.3362 28.7163C31.0547 28.4291 31.0591 27.967 31.3449 27.6857L36.72 22.4103L33.9814 19.6727C33.6971 19.3885 33.2348 19.3885 32.9505 19.6727L25.9742 26.5355C25.8313 26.6755 25.6476 26.7454 25.4624 26.7454C25.2743 26.7454 25.0847 26.6726 24.9433 26.5282Z" fill="#615E83"/>
</svg>
